<?xml version="1.0" encoding="utf-8"?>
<!-- Generator: Adobe Illustrator 15.1.0, SVG Export Plug-In . SVG Version: 6.00 Build 0)  -->
<!DOCTYPE svg PUBLIC "-//W3C//DTD SVG 1.1//EN" "http://www.w3.org/Graphics/SVG/1.1/DTD/svg11.dtd">
<svg version="1.1" id="레이어_1" xmlns="http://www.w3.org/2000/svg" xmlns:xlink="http://www.w3.org/1999/xlink" x="0px"
	 y="0px" width="278.333px" height="138.667px" viewBox="0 0 278.333 138.667" enable-background="new 0 0 278.333 138.667"
	 xml:space="preserve">
<g>
	<path fill="#0EAB4A" d="M117.402,0.528v3.358c50.863,12.646,120.084,15.833,160.719,16.551v-3.261
		C237.42,16.458,167.998,13.257,117.402,0.528z"/>
	<path fill="#44BDD2" d="M268.479,37.371c-20.965,7.102-64.047,16.64-151.076,22.716v3.268
		c71.873-5.016,125.213-13.208,154.75-23.81c2.176-0.779,4.158-1.548,5.969-2.304v-3.55
		C275.408,34.873,272.221,36.106,268.479,37.371z"/>
	<path fill="#0EAB4A" d="M117.402,46.543v3.256c40.938-0.745,110.102-4.001,160.719-16.725V29.71
		C227.771,42.523,158.41,45.792,117.402,46.543z"/>
	<path fill="#44BDD2" d="M126.287,7.995c-3.396-1.152-6.338-2.274-8.885-3.354v3.532c1.604,0.657,3.336,1.319,5.213,1.994
		c29.641,10.637,83.25,18.852,155.506,23.862v-3.266C190.586,24.687,147.313,15.115,126.287,7.995z"/>
	<path fill="#955EA4" d="M117.402,34.312v1.096c15.814,1.703,73.838,7.268,160.719,7.626v-1.086
		C191.072,41.589,133.021,36,117.402,34.312z"/>
	<path fill="#F08300" d="M117.402,37.167v4.2c6.291,1.913,17.65,4.862,35.791,7.886c23.9,3.991,64.018,8.761,124.928,10.496v-3.986
		C176.691,52.869,131.15,41.451,117.402,37.167z"/>
	<path d="M117.402,44.046v1.143c12.604,4.079,69.844,20.703,160.719,19.14v-1.088C186.512,64.819,129.182,47.893,117.402,44.046z"/>
	<polygon fill="#152A8C" points="47.163,84.622 61.747,48.574 73.716,78.979 61.736,78.979 61.736,84.635 82.772,84.635 
		61.728,32.796 40.88,84.622 	"/>
	<path fill="#152A8C" d="M108.391,53.292c0-6.183-5.046-11.214-11.254-11.214c-6.203,0-11.25,5.031-11.25,11.214
		c0,5.855,4.408,10.451,10.969,11.431c7.297,1.096,8.142,4.933,8.142,7.724c0,4.283-3.505,7.76-7.812,7.76s-7.809-3.477-7.809-7.76
		h-5.66c0,7.402,6.039,13.42,13.469,13.42c7.426,0,13.467-6.018,13.467-13.42c0-7.228-4.721-12.085-12.958-13.318
		c-2.973-0.445-6.147-2.215-6.147-5.837c0-3.061,2.508-5.555,5.59-5.555c3.088,0,5.597,2.494,5.597,5.555H108.391z"/>
	<path fill="#152A8C" d="M40.272,61.579H21.548v5.654h15.635c-0.206,1.143-0.53,2.252-0.989,3.32
		c-0.798,1.881-1.946,3.572-3.406,5.025c-1.457,1.449-3.157,2.594-5.052,3.391c-1.958,0.822-4.039,1.238-6.188,1.238
		c-2.147,0-4.231-0.416-6.188-1.238c-1.891-0.797-3.591-1.941-5.051-3.391c-1.462-1.453-2.605-3.145-3.405-5.025
		c-0.826-1.945-1.248-4.013-1.248-6.144c0-2.137,0.422-4.205,1.248-6.148c0.8-1.879,1.943-3.57,3.405-5.023
		c1.46-1.455,3.16-2.596,5.051-3.393c1.957-0.824,4.042-1.238,6.188-1.238c2.149,0,4.23,0.414,6.188,1.238l2.195-5.215
		c-2.655-1.119-5.477-1.686-8.383-1.686c-2.906,0-5.729,0.566-8.385,1.686c-2.565,1.082-4.871,2.626-6.849,4.596
		c-1.981,1.972-3.534,4.268-4.621,6.824C0.568,58.7,0,61.509,0,64.409c0,2.896,0.568,5.707,1.695,8.357
		c1.086,2.557,2.642,4.852,4.621,6.822c1.978,1.969,4.284,3.514,6.849,4.596c2.656,1.117,5.479,1.684,8.385,1.684
		c2.907,0,5.729-0.566,8.383-1.684c2.568-1.082,4.873-2.627,6.851-4.596c1.977-1.971,3.533-4.266,4.62-6.822
		c1.126-2.65,1.697-5.46,1.697-8.357v-2.83H40.272z"/>
	<path fill="#152A8C" d="M151.307,64.409c0,2.131-0.412,4.199-1.242,6.144c-0.799,1.881-1.945,3.572-3.402,5.025
		c-1.461,1.449-3.16,2.594-5.053,3.391c-1.961,0.822-4.041,1.238-6.191,1.238c-2.146,0-4.23-0.416-6.189-1.238
		c-1.891-0.797-3.59-1.941-5.051-3.391c-1.463-1.453-2.605-3.145-3.404-5.025c-0.828-1.945-1.246-4.013-1.246-6.144
		c0-2.137,0.418-4.205,1.246-6.148c0.799-1.879,1.941-3.57,3.404-5.023c1.461-1.455,3.16-2.596,5.051-3.393
		c1.959-0.824,4.043-1.238,6.189-1.238c2.15,0,4.23,0.414,6.191,1.238l2.195-5.215c-2.658-1.119-5.48-1.686-8.387-1.686
		c-2.904,0-5.725,0.566-8.385,1.686c-2.566,1.082-4.871,2.626-6.848,4.596c-1.979,1.972-3.536,4.268-4.621,6.824
		c-1.124,2.65-1.694,5.459-1.694,8.359c0,2.896,0.57,5.707,1.694,8.357c1.085,2.557,2.643,4.852,4.621,6.822
		c1.977,1.969,4.281,3.514,6.848,4.596c2.66,1.117,5.48,1.684,8.385,1.684c2.906,0,5.729-0.566,8.387-1.684
		c2.566-1.082,4.871-2.627,6.846-4.596c1.98-1.971,3.531-4.266,4.621-6.822c1.127-2.65,1.697-5.46,1.697-8.357H151.307z"/>
	<path fill="#955EA4" d="M278.121,4.853c-14.369,1.576-72.611,7.32-160.719,7.713v1.086c87.912-0.39,146.123-6.107,160.719-7.705
		V4.853z"/>
	<path fill="#E62F8B" d="M117.402,26.838v3.031c60.453-1.747,100.309-6.493,124.096-10.459c19.027-3.18,30.574-6.263,36.623-8.151
		V8.056C265.117,12.184,219.896,23.873,117.402,26.838z"/>
	<path d="M117.402,33.875v1.086c92.4,1.489,149.852-15.813,160.719-19.396v-1.146C268.293,17.695,210.725,35.38,117.402,33.875z"/>
	<g>
		<path fill="#152A8C" d="M12.518,110.538H9.401v-7.568H2.723v-2.672h9.795V110.538 M19.02,120.778H5.394v-8.91H19.02V120.778
			 M15.905,118.106v-3.564H8.511v3.564H15.905 M19.02,110.538h-3.115v-10.24h3.115V110.538z"/>
		<path fill="#152A8C" d="M57.781,112.987v2.67h-3.113v-2.67h-7.345v-2.67h16.249v2.67H57.781 M62.68,100.297H48.211v8.016H62.68
			V100.297 M48.436,114.321v6.457H62.68v-2.672H51.55v-3.785H48.436 M51.329,105.635v-2.666h8.238v2.666H51.329z"/>
		<path fill="#152A8C" d="M76.342,111.194v1.137h6.057v-12.025h2.895v3.115h1.782v2.676h-1.782v14.691h-2.895v-5.789H69.438v-2.668
			h3.786v-1.137c-0.966-0.34-1.765-0.926-2.395-1.75c-0.631-0.82-0.944-1.787-0.944-2.902c0-0.592,0.082-1.129,0.256-1.592
			c0.168-0.469,0.403-0.902,0.7-1.305h-1.403v-2.447h3.786v-1.336h3.118v1.336h3.785v2.447H78.72
			c0.299,0.402,0.532,0.836,0.702,1.305c0.175,0.463,0.26,1,0.26,1.592c0,1.115-0.317,2.082-0.948,2.902
			C78.102,110.268,77.303,110.854,76.342,111.194 M72.756,106.565c0,0.549,0.201,1.02,0.6,1.412
			c0.401,0.391,0.877,0.588,1.426,0.588c0.564,0,1.041-0.197,1.438-0.588c0.391-0.393,0.588-0.863,0.588-1.412
			c0-0.566-0.197-1.045-0.588-1.441c-0.397-0.391-0.874-0.584-1.438-0.584c-0.549,0-1.024,0.193-1.426,0.584
			C72.957,105.52,72.756,105.999,72.756,106.565z"/>
		<path fill="#152A8C" d="M102.798,105.424c0,1.529-0.544,2.842-1.626,3.934c-1.084,1.09-2.399,1.637-3.943,1.637
			c-1.527,0-2.836-0.547-3.928-1.637c-1.092-1.092-1.637-2.404-1.637-3.934c0-1.541,0.545-2.854,1.637-3.938
			c1.092-1.08,2.4-1.625,3.928-1.625c1.544,0,2.859,0.545,3.943,1.625C102.254,102.571,102.798,103.883,102.798,105.424
			 M108.207,120.788h-3.115v-5.789H91.686v-2.668h13.406v-12.025h3.115V120.788 M99.9,105.381c0-0.744-0.259-1.371-0.778-1.889
			c-0.52-0.521-1.149-0.783-1.894-0.783c-0.724,0-1.354,0.262-1.881,0.783c-0.527,0.518-0.789,1.145-0.789,1.889
			c0,0.727,0.262,1.354,0.789,1.871s1.157,0.783,1.881,0.783c0.744,0,1.374-0.266,1.894-0.783S99.9,106.108,99.9,105.381z"/>
		<path fill="#152A8C" d="M125.242,110.76l-2.695,1.355l-3.383-6.322l-3.361,6.322l-2.672-1.404l4.119-7.742h-3.43v-2.672h10.688
			v2.672h-3.43L125.242,110.76 M130.564,120.778h-14.073v-7.121h3.116v4.449h10.957V120.778 M130.564,114.989h-3.115v-8.457h-2.672
			v-2.672h2.672v-3.563h3.115V114.989z"/>
		<polygon fill="#152A8C" points="148.027,107.641 139.344,107.641 139.344,102.969 146.244,102.969 146.244,100.297 
			136.227,100.297 136.227,110.317 148.027,110.317 		"/>
		<path fill="#152A8C" d="M148.309,112.704c-1.012-1.01-2.217-1.516-3.621-1.516c-1.406,0-2.613,0.506-3.621,1.516
			c-1.014,1.014-1.516,2.215-1.516,3.621c0,1.408,0.502,2.613,1.516,3.623c1.008,1.008,2.215,1.516,3.621,1.516
			c1.404,0,2.609-0.508,3.621-1.516c1.01-1.01,1.518-2.215,1.518-3.623C149.826,114.918,149.318,113.717,148.309,112.704
			 M146.258,117.895c-0.439,0.434-0.963,0.652-1.57,0.652c-0.611,0-1.135-0.219-1.568-0.652c-0.441-0.439-0.658-0.963-0.658-1.57
			c0-0.609,0.217-1.133,0.658-1.568c0.434-0.436,0.957-0.658,1.568-0.658c0.607,0,1.131,0.223,1.57,0.658
			c0.436,0.436,0.656,0.959,0.656,1.568C146.914,116.932,146.693,117.456,146.258,117.895z"/>
		<polygon fill="#152A8C" points="154.084,102.969 152.305,102.969 152.305,100.303 149.189,100.303 149.189,112.778 
			152.305,112.778 152.305,105.635 154.084,105.635 		"/>
		<path fill="#152A8C" d="M25.959,103.874h-1.98v-2.676h3.34v-1.336h3.118v1.336h3.339v2.676h-1.982
			c0.697,0.451,1.258,1.068,1.682,1.832c0.423,0.762,0.633,1.6,0.633,2.502c0,1.443-0.507,2.676-1.525,3.697
			c-1.015,1.021-2.252,1.537-3.708,1.537c-1.44,0-2.671-0.516-3.693-1.537c-1.027-1.021-1.537-2.254-1.537-3.697
			c0-0.902,0.211-1.74,0.636-2.502C24.701,104.942,25.259,104.325,25.959,103.874 M26.652,108.186c0,0.611,0.214,1.131,0.654,1.576
			c0.439,0.436,0.96,0.652,1.568,0.652c0.609,0,1.133-0.217,1.569-0.652c0.44-0.445,0.658-0.965,0.658-1.576
			s-0.218-1.129-0.658-1.568c-0.437-0.438-0.96-0.654-1.569-0.654c-0.608,0-1.129,0.217-1.568,0.654
			C26.866,107.057,26.652,107.575,26.652,108.186z"/>
		<polygon fill="#152A8C" points="39.61,106.12 38.138,106.12 38.138,120.788 35.467,120.788 35.467,100.305 38.138,100.305 
			38.138,103.42 39.61,103.42 39.61,100.305 42.282,100.305 42.282,120.788 39.61,120.788 		"/>
	</g>
	<g>
		<path fill="#152A8C" d="M10.609,131.688v0.375c0,1.055-0.219,1.779-0.716,2.459c-0.702,0.955-1.853,1.527-3.066,1.527
			c-2.265,0-4.12-1.879-4.12-4.184c0-2.361,1.866-4.215,4.255-4.215c1.283,0,2.276,0.496,3.282,1.646l-0.872,0.838
			c-0.704-0.932-1.441-1.332-2.447-1.332c-1.685,0-2.994,1.344-2.994,3.063c0,1.65,1.333,3.029,2.931,3.029
			c1.213,0,2.303-0.918,2.414-2.057H7.264v-1.15H10.609z"/>
		<path fill="#152A8C" d="M13.274,128.67c0,0.422-0.351,0.773-0.775,0.773c-0.413,0-0.764-0.352-0.764-0.773
			c0-0.426,0.339-0.766,0.775-0.766C12.935,127.905,13.274,128.245,13.274,128.67 M13.092,135.889h-1.174v-5.1h1.174V135.889z"/>
		<path fill="#152A8C" d="M15.747,130.79v0.473c0.449-0.473,0.715-0.607,1.223-0.607c0.57,0,1.054,0.268,1.369,0.754
			c0.364-0.486,0.884-0.754,1.515-0.754c1.139,0,1.733,0.715,1.733,2.088v3.146h-1.176v-2.832c0-0.973-0.217-1.348-0.787-1.348
			c-0.667,0-0.957,0.463-0.957,1.551v2.629H17.49v-2.822c0-0.92-0.253-1.357-0.787-1.357c-0.666,0-0.957,0.471-0.957,1.551v2.629
			H14.57v-5.1H15.747z"/>
		<path fill="#152A8C" d="M24.217,127.059v4.154c0.446-0.398,0.835-0.559,1.369-0.559c0.642,0,1.188,0.254,1.502,0.693
			c0.255,0.34,0.339,0.715,0.339,1.418v3.123h-1.175v-3.018c0-0.797-0.278-1.162-0.885-1.162c-0.86,0-1.15,0.424-1.15,1.725v2.455
			h-1.176v-8.83H24.217z"/>
		<path fill="#152A8C" d="M33.849,130.79v5.1h-1.175v-0.531c-0.546,0.51-0.946,0.691-1.563,0.691c-1.418,0-2.437-1.143-2.437-2.74
			c0-1.514,1.043-2.654,2.411-2.654c0.644,0,1.08,0.209,1.589,0.729v-0.594H33.849 M29.875,133.346c0,0.957,0.594,1.65,1.417,1.65
			c0.862,0,1.454-0.67,1.454-1.65c0-0.957-0.592-1.637-1.454-1.637C30.479,131.709,29.875,132.403,29.875,133.346z"/>
		<path fill="#152A8C" d="M36.332,133.625c0.061,0.836,0.569,1.371,1.321,1.371c0.595,0,0.909-0.232,1.382-0.996l0.994,0.559
			c-0.618,1.043-1.346,1.49-2.425,1.49c-1.49,0-2.508-1.08-2.508-2.666c0-1.674,0.97-2.729,2.485-2.729c1.465,0,2.4,1.045,2.4,2.654
			v0.316H36.332 M38.769,132.667c-0.158-0.604-0.581-0.945-1.188-0.945c-0.571,0-1.03,0.363-1.175,0.945H38.769z"/>
		<path fill="#152A8C" d="M45.808,133.93l-0.908,1.959h-1.309l3.998-8.59l3.854,8.59H50.11l-0.849-1.959H45.808 M47.566,130.04
			l-1.249,2.738h2.448L47.566,130.04z"/>
		<path fill="#152A8C" d="M53.405,130.79v0.459c0.436-0.459,0.715-0.604,1.175-0.604c0.364,0,0.583,0.074,0.982,0.314l-0.545,1.076
			c-0.267-0.191-0.412-0.252-0.653-0.252c-0.655,0-0.958,0.461-0.958,1.463v2.643H52.23v-5.1H53.405z"/>
		<polygon fill="#152A8C" points="57.84,135.889 56.664,135.889 56.664,131.893 56.168,131.893 56.168,130.79 56.664,130.79 
			56.664,128.924 57.84,128.924 57.84,130.79 58.762,130.79 58.762,131.893 57.84,131.893 		"/>
		<path fill="#152A8C" d="M61.561,132.18c-0.171-0.324-0.341-0.471-0.582-0.471c-0.206,0-0.389,0.156-0.389,0.365
			c0,0.219,0.123,0.328,0.68,0.582c1.26,0.58,1.588,0.922,1.588,1.67c0,0.957-0.801,1.723-1.806,1.723
			c-0.874,0-1.467-0.414-1.83-1.26l1.005-0.463c0.279,0.508,0.473,0.67,0.825,0.67c0.362,0,0.604-0.221,0.604-0.549
			c0-0.336-0.072-0.389-1.174-0.932c-0.752-0.365-0.995-0.691-0.995-1.324c0-0.906,0.667-1.537,1.624-1.537
			c0.631,0,1.091,0.326,1.418,1.006L61.561,132.18z"/>
		<path fill="#152A8C" d="M71.871,130.79v5.1h-1.174v-0.531c-0.547,0.51-0.947,0.691-1.564,0.691c-1.418,0-2.436-1.143-2.436-2.74
			c0-1.514,1.042-2.654,2.41-2.654c0.643,0,1.08,0.209,1.59,0.729v-0.594H71.871 M67.896,133.346c0,0.957,0.595,1.65,1.418,1.65
			c0.861,0,1.454-0.67,1.454-1.65c0-0.957-0.593-1.637-1.454-1.637C68.502,131.709,67.896,132.403,67.896,133.346z"/>
		<path fill="#152A8C" d="M74.537,130.79v0.473c0.46-0.447,0.813-0.607,1.369-0.607c1.248,0,1.842,0.68,1.842,2.111v3.123h-1.176
			v-2.844c0-1.01-0.23-1.336-0.957-1.336c-0.787,0-1.078,0.463-1.078,1.725v2.455h-1.175v-5.1H74.537z"/>
		<path fill="#152A8C" d="M84.17,127.059v8.83h-1.178v-0.531c-0.494,0.486-0.954,0.691-1.573,0.691c-1.405,0-2.423-1.154-2.423-2.74
			c0-1.514,1.042-2.654,2.411-2.654c0.631,0,1.091,0.209,1.585,0.729v-4.324H84.17 M80.195,133.346c0,0.957,0.594,1.65,1.418,1.65
			c0.861,0,1.455-0.67,1.455-1.65c0-0.967-0.594-1.637-1.455-1.637C80.789,131.709,80.195,132.403,80.195,133.346z"/>
		<path fill="#152A8C" d="M92.507,129.604c-0.376-0.619-0.655-0.801-1.212-0.801c-0.665,0-1.176,0.436-1.176,1.004
			c0,0.268,0.119,0.496,0.389,0.68c0.252,0.182,0.145,0.133,1.297,0.592c1.295,0.547,1.889,1.273,1.889,2.355
			c0,1.5-1.09,2.615-2.557,2.615c-1.44,0-2.399-0.875-2.617-2.389l1.236-0.277c0.061,0.484,0.109,0.676,0.23,0.885
			c0.206,0.389,0.666,0.627,1.164,0.627c0.764,0,1.32-0.568,1.32-1.342c0-0.461-0.193-0.811-0.557-1.066
			c-0.184-0.121-0.389-0.232-0.596-0.314l-0.268-0.109l-0.252-0.109l-0.255-0.109c-1.114-0.475-1.661-1.141-1.661-2.037
			c0-1.234,1.042-2.156,2.424-2.156c0.971,0,1.637,0.412,2.182,1.359L92.507,129.604z"/>
		<path fill="#152A8C" d="M94.93,138.667v-7.877h1.176v0.559c0.496-0.484,0.957-0.693,1.575-0.693c1.405,0,2.424,1.152,2.424,2.738
			c0,1.514-1.043,2.656-2.411,2.656c-0.631,0-1.103-0.219-1.588-0.727v3.344H94.93 M96.033,133.346c0,0.98,0.594,1.65,1.455,1.65
			c0.811,0,1.414-0.693,1.414-1.65c0-0.943-0.592-1.637-1.414-1.637C96.627,131.709,96.033,132.379,96.033,133.346z"/>
		<path fill="#152A8C" d="M106.549,133.358c0,1.504-1.187,2.691-2.712,2.691c-1.527,0-2.728-1.188-2.728-2.691
			c0-1.523,1.189-2.703,2.728-2.703C105.362,130.655,106.549,131.834,106.549,133.358 M102.31,133.358
			c0,0.98,0.604,1.639,1.514,1.639c0.922,0,1.528-0.658,1.528-1.639c0-0.992-0.606-1.648-1.528-1.648
			C102.914,131.709,102.31,132.366,102.31,133.358z"/>
		<path fill="#152A8C" d="M108.961,130.79v0.459c0.436-0.459,0.715-0.604,1.176-0.604c0.362,0,0.582,0.074,0.98,0.314l-0.544,1.076
			c-0.268-0.191-0.412-0.252-0.654-0.252c-0.655,0-0.958,0.461-0.958,1.463v2.643h-1.174v-5.1H108.961z"/>
		<polygon fill="#152A8C" points="113.396,135.889 112.221,135.889 112.221,131.893 111.725,131.893 111.725,130.79 112.221,130.79 
			112.221,128.924 113.396,128.924 113.396,130.79 114.316,130.79 114.316,131.893 113.396,131.893 		"/>
		<path fill="#152A8C" d="M117.115,132.18c-0.17-0.324-0.34-0.471-0.581-0.471c-0.206,0-0.39,0.156-0.39,0.365
			c0,0.219,0.123,0.328,0.68,0.582c1.26,0.58,1.588,0.922,1.588,1.67c0,0.957-0.799,1.723-1.805,1.723
			c-0.871,0-1.467-0.414-1.83-1.26l1.006-0.463c0.278,0.508,0.473,0.67,0.824,0.67c0.363,0,0.604-0.221,0.604-0.549
			c0-0.336-0.07-0.389-1.174-0.932c-0.75-0.365-0.994-0.691-0.994-1.324c0-0.906,0.667-1.537,1.625-1.537
			c0.629,0,1.091,0.326,1.416,1.006L117.115,132.18z"/>
		<path fill="#152A8C" d="M128.699,129.688c-0.764-0.629-1.381-0.885-2.191-0.885c-1.648,0-2.959,1.355-2.959,3.063
			c0,1.727,1.299,3.029,3.006,3.029c0.752,0,1.369-0.264,2.145-0.918v1.467c-0.715,0.412-1.418,0.605-2.17,0.605
			c-2.363,0-4.205-1.844-4.205-4.215c0-2.27,1.928-4.184,4.205-4.184c0.861,0,1.418,0.16,2.17,0.594V129.688z"/>
		<path fill="#152A8C" d="M130.988,133.625c0.063,0.836,0.57,1.371,1.322,1.371c0.594,0,0.908-0.232,1.381-0.996l0.992,0.559
			c-0.615,1.043-1.344,1.49-2.42,1.49c-1.492,0-2.51-1.08-2.51-2.666c0-1.674,0.969-2.729,2.482-2.729c1.467,0,2.4,1.045,2.4,2.654
			v0.316H130.988 M133.426,132.667c-0.158-0.604-0.582-0.945-1.189-0.945c-0.568,0-1.027,0.363-1.176,0.945H133.426z"/>
		<path fill="#152A8C" d="M137.098,130.79v0.473c0.459-0.447,0.811-0.607,1.367-0.607c1.248,0,1.844,0.68,1.844,2.111v3.123h-1.176
			v-2.844c0-1.01-0.23-1.336-0.959-1.336c-0.787,0-1.076,0.463-1.076,1.725v2.455h-1.176v-5.1H137.098z"/>
		<polygon fill="#152A8C" points="143.01,135.889 141.834,135.889 141.834,131.893 141.338,131.893 141.338,130.79 141.834,130.79 
			141.834,128.924 143.01,128.924 143.01,130.79 143.93,130.79 143.93,131.893 143.01,131.893 		"/>
		<path fill="#152A8C" d="M145.82,133.625c0.063,0.836,0.57,1.371,1.322,1.371c0.594,0,0.908-0.232,1.381-0.996l0.994,0.559
			c-0.617,1.043-1.346,1.49-2.426,1.49c-1.488,0-2.508-1.08-2.508-2.666c0-1.674,0.971-2.729,2.486-2.729
			c1.467,0,2.396,1.045,2.396,2.654v0.316H145.82 M148.256,132.667c-0.156-0.604-0.58-0.945-1.186-0.945
			c-0.57,0-1.031,0.363-1.176,0.945H148.256z"/>
		<path fill="#152A8C" d="M151.928,130.79v0.459c0.438-0.459,0.715-0.604,1.176-0.604c0.363,0,0.582,0.074,0.982,0.314l-0.547,1.076
			c-0.266-0.191-0.41-0.252-0.652-0.252c-0.656,0-0.959,0.461-0.959,1.463v2.643h-1.176v-5.1H151.928z"/>
	</g>
</g>
</svg>
